<svg width="562.01" height="421.30" xmlns="http://www.w3.org/2000/svg" xmlns:xlink="http://www.w3.org/1999/xlink">
  <symbol viewBox="0.00 0.00 2732.00 2048.00" id="purin_logo" fill="rgb(0, 0, 0)"  stroke-width="13.47" stroke-opacity="1.00" stroke-linejoin="round">
    <g class="exclamation">
      <path d="M682.91,496.18 C685.51,494.66 722.04,496.01 741.26,496.25 C773.48,496.31 838.23,496.28 870.76,496.19 C903.70,496.24 960.31,495.82 960.99,496.18 C962.12,496.83 962.88,498.74 963.01,501.06 C963.16,504.78 963.11,569.72 963.09,595.21 C963.08,625.34 963.06,690.25 963.06,725.02 C963.05,764.43 963.06,847.35 963.06,890.86 C963.06,931.75 963.08,1008.93 963.09,1045.22 C963.10,1076.90 963.12,1135.66 963.13,1162.73 C963.14,1185.20 962.74,1229.85 962.87,1231.74 C963.17,1234.85 963.77,1244.42 963.20,1245.62 C962.55,1246.90 960.62,1248.10 959.42,1248.26 C952.96,1249.09 918.31,1248.10 899.38,1247.78 C866.44,1247.74 801.65,1247.79 769.81,1247.88 C749.40,1247.83 716.89,1247.78 704.78,1247.80 C695.04,1247.98 687.57,1248.39 685.10,1248.29 C683.46,1248.17 681.78,1247.23 681.27,1245.99 C680.73,1244.58 680.79,1177.50 680.80,1152.30 C680.82,1122.46 680.84,1058.14 680.84,1023.66 C680.84,984.54 680.84,902.02 680.84,858.62 C680.84,817.44 680.82,739.68 680.81,703.11 C680.80,671.14 680.78,611.81 680.77,584.44 C680.76,561.69 680.73,525.13 681.10,515.41 C681.13,513.38 680.28,503.14 680.23,501.86 C680.18,499.53 681.35,497.16 682.91,496.18 Z"/>
      <path d="M819.78,1317.40 C820.71,1317.30 828.61,1319.83 831.16,1319.79 C838.56,1319.63 849.39,1320.70 857.93,1322.40 C869.40,1324.82 882.64,1328.56 889.15,1332.15 C890.38,1332.83 894.74,1335.36 895.73,1335.90 C897.50,1336.87 898.11,1336.98 899.99,1336.76 C901.41,1336.61 903.12,1337.26 904.84,1338.67 C909.30,1342.38 912.94,1344.69 916.41,1346.08 C919.11,1347.29 935.96,1360.70 939.18,1363.47 C945.79,1369.15 957.70,1381.53 962.81,1388.24 C966.55,1393.19 977.04,1410.37 978.37,1413.00 C981.30,1418.80 983.22,1425.11 984.07,1428.13 C985.16,1431.49 988.35,1436.42 989.24,1439.07 C989.85,1440.93 995.52,1467.41 995.75,1469.48 C996.07,1472.26 995.49,1478.05 996.28,1480.62 C997.66,1485.10 998.28,1489.31 998.30,1493.38 C998.28,1497.45 997.66,1501.66 996.28,1506.14 C995.49,1508.71 996.06,1514.48 995.75,1517.28 C995.52,1519.37 989.96,1545.50 989.24,1547.69 C988.00,1551.37 984.65,1556.23 984.25,1558.69 C983.57,1562.93 982.50,1565.61 980.06,1570.34 C976.31,1577.22 966.50,1593.92 962.64,1599.46 C958.08,1605.95 946.75,1618.81 942.44,1622.24 C935.79,1627.31 922.09,1638.81 921.89,1638.94 C920.08,1640.11 913.00,1643.07 911.05,1645.01 C908.23,1647.84 903.89,1650.13 899.11,1652.14 C881.55,1659.03 861.32,1665.54 854.36,1666.87 C852.80,1667.17 848.08,1667.01 845.91,1667.74 C841.91,1669.09 838.90,1669.40 833.48,1669.38 C825.17,1669.16 807.41,1668.51 798.97,1667.92 C787.55,1666.88 776.28,1664.56 767.77,1661.54 C764.46,1660.36 758.39,1656.90 756.77,1656.32 C755.40,1655.84 748.95,1654.68 745.72,1652.99 C738.95,1649.44 724.93,1641.06 718.98,1636.82 C712.48,1632.17 701.53,1623.01 695.94,1617.22 C691.06,1612.13 680.55,1599.23 676.15,1592.95 C671.38,1586.09 665.36,1575.13 661.08,1565.68 C659.19,1561.28 658.22,1558.33 657.62,1554.54 C657.08,1552.02 653.18,1545.44 652.49,1543.35 C651.81,1541.23 650.63,1531.88 650.32,1530.31 C649.95,1528.48 648.29,1523.07 647.76,1518.85 C646.94,1511.57 645.57,1494.87 645.64,1488.35 C645.70,1484.46 646.29,1480.31 647.64,1476.18 C648.42,1473.73 647.72,1468.32 648.15,1465.14 C648.59,1461.89 654.55,1438.40 656.50,1434.59 C656.91,1433.79 658.54,1431.59 659.01,1430.38 C659.58,1428.89 660.79,1422.30 662.22,1419.45 C665.85,1412.18 673.04,1400.08 678.39,1392.87 C682.75,1387.17 693.74,1373.77 698.27,1369.07 C704.02,1363.13 716.54,1352.60 723.46,1347.96 C728.78,1344.41 745.49,1334.64 750.54,1333.00 C753.54,1332.15 760.04,1330.18 762.13,1329.01 C765.58,1326.78 769.14,1325.60 773.28,1325.11 C780.03,1324.32 798.03,1319.29 801.72,1319.15 C802.28,1319.13 810.52,1319.88 812.92,1319.88 C815.06,1319.86 818.94,1317.50 819.78,1317.40 Z"/>
    </g>
    <g class="big_p">
      <path d="M1714.87,837.27 C1716.14,836.90 1741.79,836.99 1744.83,837.95 C1745.44,838.15 1747.44,839.20 1749.63,839.44 C1751.73,839.66 1761.32,839.31 1763.91,839.32 C1768.18,839.35 1774.36,841.42 1775.70,841.61 C1777.28,841.84 1784.44,841.41 1787.27,842.16 C1794.11,844.03 1801.76,844.93 1812.89,847.49 C1821.80,849.66 1842.31,854.96 1845.13,856.39 C1845.96,856.82 1848.39,858.51 1849.57,858.99 C1851.02,859.58 1857.54,860.83 1860.62,862.08 C1866.46,864.46 1881.72,871.07 1889.33,874.60 C1901.34,880.38 1928.38,896.25 1943.00,905.75 C1949.15,909.94 1962.54,919.83 1967.77,923.98 C1973.35,928.57 1987.08,940.12 1990.85,943.63 C1996.08,948.52 2006.63,959.56 2014.06,968.14 C2022.40,978.19 2047.71,1011.62 2052.00,1017.89 C2055.09,1022.49 2073.67,1059.22 2079.07,1070.93 C2082.52,1078.71 2090.32,1096.75 2090.72,1097.98 C2091.48,1100.30 2092.66,1106.67 2094.03,1109.06 C2096.53,1113.38 2097.29,1115.49 2098.67,1120.73 C2102.69,1137.41 2112.34,1179.26 2113.50,1186.76 C2114.22,1191.53 2114.32,1198.55 2114.43,1200.30 C2114.63,1203.40 2116.76,1210.67 2116.79,1210.95 C2116.95,1212.32 2117.03,1256.81 2116.93,1274.18 C2116.69,1286.01 2114.76,1300.34 2114.62,1302.20 C2114.46,1304.39 2114.83,1310.83 2114.05,1313.41 C2112.21,1319.40 2111.77,1330.38 2109.64,1339.90 C2106.20,1354.63 2099.82,1379.67 2097.98,1386.55 C2096.97,1390.28 2093.44,1396.39 2092.89,1397.79 C2092.29,1399.37 2090.89,1406.62 2089.53,1409.09 C2086.23,1415.03 2081.63,1428.80 2078.48,1435.61 C2075.24,1442.35 2066.82,1458.71 2065.01,1461.80 C2063.56,1464.28 2040.19,1500.84 2032.60,1511.47 C2029.48,1515.72 2018.03,1529.78 2012.86,1535.74 C2007.49,1541.69 1994.36,1555.22 1990.78,1558.56 C1980.60,1568.04 1949.26,1591.97 1940.45,1598.15 C1926.48,1607.61 1910.66,1616.31 1888.30,1627.25 C1882.02,1630.28 1868.22,1636.88 1864.57,1638.23 C1832.83,1649.92 1794.88,1656.29 1792.34,1657.03 C1788.28,1658.30 1784.98,1658.66 1780.64,1658.36 C1777.70,1658.26 1771.82,1660.39 1769.18,1660.67 C1766.96,1660.89 1757.42,1660.52 1755.14,1660.54 C1750.94,1660.59 1736.02,1663.50 1728.52,1663.12 C1725.04,1662.91 1719.03,1660.89 1717.04,1660.67 C1715.76,1660.53 1696.99,1660.73 1690.51,1660.13 C1684.53,1659.56 1668.40,1656.88 1661.69,1655.71 C1653.85,1654.25 1636.52,1650.36 1630.71,1648.77 C1623.24,1646.55 1608.59,1641.57 1601.45,1638.87 C1586.55,1632.85 1564.82,1621.82 1558.52,1618.47 C1558.37,1618.39 1525.02,1595.44 1510.98,1583.88 C1506.65,1580.19 1502.13,1576.12 1499.79,1573.77 C1497.28,1571.24 1492.42,1565.48 1491.10,1565.07 C1489.94,1564.78 1487.21,1565.66 1486.18,1566.74 C1485.06,1567.96 1484.47,1569.76 1484.50,1571.37 C1484.51,1571.65 1484.12,1606.48 1484.13,1621.07 C1484.34,1659.35 1484.59,1729.94 1484.63,1762.25 C1484.57,1796.41 1484.51,1861.91 1484.50,1893.25 C1484.65,1929.44 1485.13,2005.34 1484.84,2019.95 C1484.80,2020.98 1484.66,2023.67 1484.67,2023.91 C1484.70,2025.37 1483.92,2027.03 1482.69,2027.59 C1482.31,2027.75 1395.21,2027.62 1358.78,2027.69 C1321.76,2027.87 1249.81,2028.30 1224.08,2028.12 C1221.69,2028.06 1215.48,2027.95 1215.18,2027.83 C1213.82,2027.21 1213.02,2025.39 1213.03,2022.94 C1213.05,2002.30 1213.10,1957.95 1213.13,1934.23 C1213.14,1906.67 1213.17,1847.69 1213.18,1816.28 C1213.19,1781.02 1213.18,1706.65 1213.18,1667.54 C1213.16,1625.16 1213.14,1542.29 1213.12,1501.81 C1213.11,1464.44 1213.09,1392.84 1213.07,1358.60 C1213.06,1327.49 1213.04,1268.38 1213.03,1240.39 C1213.02,1215.52 1213.06,1145.08 1213.10,1099.51 C1213.15,1069.87 1213.15,1017.76 1213.11,995.28 C1212.96,965.05 1212.75,903.70 1212.70,872.58 C1212.76,870.09 1212.89,863.65 1213.01,863.34 C1213.62,861.98 1215.45,861.18 1217.90,861.19 C1244.06,861.32 1306.73,861.36 1343.24,861.28 C1380.33,861.10 1451.58,860.69 1475.98,860.94 C1477.14,860.97 1480.14,861.09 1480.43,861.08 C1482.11,861.05 1483.77,861.76 1484.34,862.98 C1484.49,863.32 1484.53,906.29 1484.58,922.00 C1484.39,929.94 1484.10,935.45 1484.21,937.23 C1484.33,938.59 1485.13,940.95 1485.99,942.21 C1487.14,943.80 1489.50,944.48 1491.10,943.72 C1492.55,942.97 1506.32,925.78 1512.09,920.72 C1517.89,915.93 1529.27,906.13 1534.86,901.12 C1539.62,896.93 1554.46,886.00 1559.89,882.52 C1565.90,878.69 1593.48,864.93 1613.68,856.73 C1622.20,853.47 1637.19,848.73 1645.40,847.05 C1647.51,846.62 1656.87,844.92 1660.14,844.31 C1664.46,843.47 1669.90,841.76 1671.42,841.61 C1672.58,841.50 1680.42,841.84 1682.31,841.01 C1685.13,839.77 1690.96,839.26 1695.68,839.32 C1700.04,839.44 1710.02,839.56 1710.52,839.44 C1711.40,839.23 1714.51,837.37 1714.87,837.27 Z"/>
      <path d="M1649.69,1069.73 C1650.23,1069.44 1677.15,1072.10 1680.27,1072.03 C1680.69,1072.03 1683.86,1071.72 1684.45,1071.90 C1684.75,1072.00 1687.96,1073.77 1688.80,1074.08 C1689.55,1074.34 1697.10,1075.09 1701.83,1076.25 C1706.38,1077.38 1726.54,1084.26 1732.36,1086.82 C1735.91,1088.39 1744.16,1092.90 1745.29,1093.63 C1746.90,1094.68 1753.50,1099.96 1756.44,1101.79 C1764.01,1106.32 1777.19,1117.33 1780.95,1120.77 C1787.29,1126.60 1794.30,1134.72 1799.90,1142.97 C1810.85,1159.78 1820.01,1176.98 1821.33,1180.53 C1822.09,1182.64 1823.17,1189.05 1824.83,1192.13 C1825.41,1193.21 1827.62,1197.02 1827.84,1197.91 C1828.14,1199.09 1827.74,1201.68 1827.84,1202.26 C1827.91,1202.68 1829.75,1205.88 1830.02,1206.60 C1830.37,1207.56 1834.38,1230.84 1834.67,1237.09 C1834.79,1239.67 1834.65,1260.97 1834.58,1263.33 C1834.39,1269.15 1831.83,1286.21 1830.02,1293.51 C1828.20,1300.71 1821.99,1318.25 1819.48,1323.84 C1817.84,1327.47 1813.32,1335.89 1812.63,1336.96 C1811.05,1339.41 1806.16,1345.33 1804.65,1347.95 C1800.92,1354.69 1790.27,1366.92 1784.08,1373.67 C1775.80,1382.48 1767.90,1390.36 1763.08,1393.81 C1760.27,1395.81 1743.71,1406.20 1739.59,1408.39 C1732.04,1412.40 1719.44,1417.91 1711.81,1420.55 C1706.38,1422.40 1690.59,1426.15 1684.93,1427.08 C1678.98,1427.99 1663.09,1428.59 1655.60,1428.83 C1646.95,1428.93 1630.72,1427.45 1622.06,1425.77 C1617.25,1424.82 1599.11,1420.52 1592.42,1417.61 C1586.69,1415.17 1573.72,1409.22 1566.83,1404.98 C1560.81,1401.22 1546.68,1392.23 1541.05,1387.88 C1534.65,1382.91 1523.27,1371.93 1517.98,1365.80 C1512.80,1359.79 1503.54,1347.24 1499.69,1340.77 C1495.96,1334.43 1488.68,1318.29 1486.75,1313.06 C1483.91,1305.28 1478.25,1284.18 1478.06,1282.64 C1477.89,1281.18 1478.31,1273.81 1477.56,1271.89 C1476.26,1268.55 1475.79,1264.41 1475.61,1258.82 C1475.56,1254.47 1475.56,1245.75 1475.61,1241.39 C1475.79,1235.76 1476.32,1230.83 1477.50,1227.96 C1478.24,1226.16 1478.06,1221.52 1478.50,1219.50 C1480.71,1209.05 1483.83,1197.58 1487.02,1189.03 C1489.34,1182.97 1496.51,1167.03 1499.79,1160.98 C1503.13,1154.83 1511.41,1142.26 1516.07,1136.70 C1520.27,1131.71 1530.28,1121.81 1538.42,1114.54 C1544.69,1109.23 1558.13,1098.64 1564.14,1094.80 C1567.66,1092.55 1573.31,1089.44 1577.54,1087.24 C1581.82,1085.13 1584.57,1084.14 1588.65,1083.50 C1591.21,1082.98 1596.43,1079.58 1599.72,1078.42 C1601.80,1077.70 1623.95,1072.60 1630.14,1071.90 C1638.05,1071.06 1647.18,1072.14 1647.52,1071.90 C1648.37,1071.33 1648.79,1070.22 1649.69,1069.73 Z" fill="none" stroke-width="13.47" stroke-opacity="1.00" stroke-linejoin="round"/>
    </g>
    <g class="flame">
      <path d="M541.39,62.80 L2187.31,62.80 L2187.31,1708.72 L541.39,1708.72 L541.39,62.80 Z" fill="none" stroke-width="25.00" stroke-opacity="1.00" stroke-linejoin="miter"/>
    </g>
    <g class="fan_site" stroke-width="6.20" stroke-opacity="1.00" stroke-linejoin="round">
      <path d="M1593.50,92.50 C1594.83,91.68 1612.97,92.69 1621.79,92.38 C1623.46,92.37 1627.13,92.35 1627.50,92.50 C1628.64,93.02 1628.48,96.92 1628.43,101.44 C1628.47,130.97 1628.40,169.69 1629.05,170.82 C1629.59,171.68 1630.98,171.38 1632.28,170.24 C1636.63,166.30 1640.37,163.33 1643.75,161.70 C1645.67,160.79 1651.43,158.80 1654.50,158.50 C1654.99,158.46 1659.45,157.37 1664.00,157.47 C1665.59,157.51 1668.06,157.50 1669.05,157.45 C1669.43,157.43 1684.74,160.93 1688.96,164.09 C1689.67,164.62 1692.10,167.23 1692.50,167.50 C1693.12,167.92 1693.97,167.98 1694.50,168.50 C1696.65,170.63 1702.45,182.26 1702.50,182.50 C1703.31,186.52 1704.63,198.11 1704.71,207.54 C1704.58,223.05 1704.59,264.29 1704.50,264.50 C1704.02,265.54 1687.83,265.53 1681.02,265.50 C1677.60,265.54 1674.00,265.40 1670.55,265.02 C1668.92,264.81 1667.85,263.98 1667.93,262.90 C1668.01,262.08 1668.57,260.10 1668.57,258.01 C1668.63,250.93 1668.69,234.67 1668.67,225.49 C1668.56,213.63 1667.43,204.71 1667.54,202.57 C1667.63,200.39 1665.60,194.29 1664.05,192.27 C1662.24,190.00 1659.00,187.53 1656.12,186.64 C1654.44,186.15 1651.55,185.49 1650.50,185.50 C1648.94,185.52 1641.56,186.85 1640.72,187.29 C1638.30,188.58 1634.19,191.65 1632.98,193.27 C1632.19,194.35 1631.29,195.87 1630.40,197.68 C1629.03,200.55 1628.41,206.36 1628.27,211.26 C1628.24,213.15 1628.27,257.51 1628.84,261.29 C1629.18,263.69 1628.81,264.83 1627.50,265.50 C1626.19,266.09 1593.88,265.66 1593.50,265.50 C1592.39,264.99 1592.50,261.46 1592.52,256.56 C1592.56,224.81 1592.55,159.38 1592.52,125.70 C1592.50,117.47 1592.74,104.37 1592.50,101.50 C1592.33,99.15 1591.78,95.13 1591.88,94.66 C1592.08,93.82 1592.62,93.10 1593.50,92.50 Z"/>
      <path d="M1180.50,96.50 C1182.05,95.73 1186.78,97.62 1188.17,97.86 C1190.94,98.41 1196.43,102.08 1198.42,104.75 C1200.61,107.83 1202.34,113.13 1202.56,117.44 C1202.69,120.96 1200.91,126.16 1199.24,128.47 C1197.68,130.52 1191.31,135.92 1188.49,136.85 C1185.92,137.65 1179.45,137.62 1177.36,137.10 C1175.63,136.64 1171.28,134.47 1169.45,133.13 C1167.39,131.60 1164.53,127.71 1163.39,125.49 C1162.48,123.67 1161.27,118.45 1161.25,117.90 C1161.24,116.13 1163.76,107.98 1165.50,105.50 C1166.63,103.92 1168.63,102.07 1171.23,100.04 C1173.08,98.63 1174.85,98.66 1175.50,98.50 C1176.17,98.17 1176.83,97.83 1177.50,97.50 C1178.15,97.35 1178.87,97.71 1179.50,97.50 C1179.95,97.35 1180.08,96.72 1180.50,96.50 Z"/>
      <path d="M840.50,156.50 C842.60,155.80 857.23,157.42 861.81,158.63 C866.30,159.86 878.59,167.12 883.69,171.70 C886.26,174.04 891.12,180.35 892.69,183.05 C894.47,186.15 896.95,192.60 897.94,196.10 C899.98,203.43 900.76,216.92 900.02,222.21 C899.28,227.18 892.18,243.83 889.41,247.94 C886.84,251.69 873.78,262.76 869.50,264.50 C868.51,264.90 865.51,265.50 865.50,265.50 C865.06,265.66 862.17,267.28 861.50,267.50 C860.78,267.74 851.53,269.37 850.95,269.43 C848.28,269.71 841.54,268.88 836.13,267.99 C834.45,267.72 826.44,264.94 825.50,264.50 C821.77,262.75 816.32,256.97 815.50,256.50 C814.44,255.93 813.12,256.76 812.86,258.04 C812.40,260.63 812.40,311.16 812.50,312.50 C812.69,315.26 813.18,318.69 813.12,318.90 C812.81,319.83 810.91,320.77 809.47,320.86 C807.39,320.95 783.21,320.63 779.88,320.65 C777.88,320.66 776.70,320.13 776.47,319.00 C776.43,318.71 776.57,227.51 776.58,196.80 C776.43,182.90 776.32,165.86 776.37,162.73 C776.40,160.80 776.81,159.71 777.82,159.51 C777.84,159.50 796.17,159.56 802.13,159.55 C804.98,159.52 811.54,159.27 812.50,160.50 C813.10,161.34 812.70,164.93 812.53,166.01 C812.26,167.70 812.84,169.57 813.85,170.30 C814.56,170.76 815.11,170.83 815.50,170.50 C816.07,170.01 816.81,167.98 817.98,167.18 C826.26,161.63 830.62,159.44 834.39,158.13 C836.07,157.54 837.86,157.67 838.50,157.50 C839.22,157.31 839.80,156.74 840.50,156.50 Z"/>
      <path d="M1566.50,190.50 C1562.29,188.77 1558.37,187.31 1555.72,186.92 C1554.73,186.78 1546.59,186.33 1545.02,186.33 C1542.17,186.36 1536.86,188.09 1534.37,190.04 C1532.81,191.29 1528.54,194.28 1526.86,196.47 C1524.68,199.40 1522.52,205.17 1521.85,209.17 C1521.22,213.21 1521.81,219.71 1523.15,223.31 C1524.63,227.14 1526.29,229.69 1529.50,232.50 C1535.15,237.30 1536.73,238.20 1541.16,239.02 C1542.72,239.28 1543.53,239.51 1545.61,240.18 C1547.19,240.68 1554.84,239.59 1555.50,239.50 C1555.89,239.44 1559.36,238.19 1560.96,237.61 C1562.84,236.94 1565.30,234.58 1566.50,234.50 C1567.21,234.48 1567.55,236.90 1567.52,238.86 C1567.31,244.83 1567.67,256.30 1567.83,260.11 C1567.85,261.72 1566.92,263.70 1565.72,264.56 C1565.05,265.02 1549.48,269.13 1545.25,269.44 C1539.79,269.80 1523.93,266.90 1518.38,264.75 C1515.22,263.50 1506.77,258.60 1505.50,257.50 C1504.80,256.88 1502.10,254.95 1501.50,254.50 C1501.20,254.27 1499.23,251.32 1498.50,250.50 C1498.08,250.02 1494.93,247.08 1494.50,246.50 C1494.06,245.91 1492.77,242.92 1492.50,242.50 C1492.23,242.06 1489.80,239.10 1489.50,238.50 C1489.19,237.88 1488.61,234.82 1488.50,234.50 C1488.41,234.25 1485.86,228.95 1484.97,225.22 C1484.58,223.54 1484.38,220.92 1484.46,218.99 C1484.57,216.76 1483.66,215.23 1483.50,214.50 C1483.43,214.15 1484.36,211.42 1484.50,210.50 C1484.62,209.76 1484.52,204.52 1485.50,200.50 C1485.77,199.44 1488.50,190.76 1489.50,188.50 C1491.10,184.95 1495.49,178.31 1497.90,175.74 C1500.38,173.12 1505.77,168.62 1508.94,166.38 C1512.17,164.12 1518.04,161.29 1521.66,160.07 C1528.89,157.68 1542.83,156.12 1548.62,156.70 C1551.65,157.03 1562.06,159.55 1565.07,160.97 C1566.89,161.86 1567.97,163.03 1567.88,164.08 C1567.44,167.72 1567.54,181.71 1567.56,185.78 C1567.62,188.10 1566.50,189.76 1566.50,190.50 C1566.50,190.97 1567.32,191.07 1567.50,191.50 C1567.62,191.77 1567.62,192.43 1567.50,193.50"/>
      <path d="M1774.50,156.50 C1775.95,155.78 1790.15,157.25 1796.18,158.81 C1798.76,159.49 1802.41,161.41 1804.44,162.31 C1806.32,163.17 1810.83,168.07 1812.70,168.60 C1813.89,168.89 1815.07,168.09 1815.34,166.85 C1815.54,165.86 1815.39,162.99 1815.34,162.23 C1815.27,160.91 1815.80,160.03 1816.94,159.78 C1819.94,159.20 1851.34,159.44 1851.50,159.50 C1852.59,159.99 1852.50,163.61 1852.46,168.65 C1852.46,202.50 1852.26,258.31 1852.50,259.50 C1853.08,262.59 1852.83,264.61 1851.50,265.50 C1850.36,266.21 1823.71,265.51 1823.50,265.50 C1820.42,265.36 1816.34,265.92 1815.50,264.50 C1815.16,263.88 1815.32,260.51 1815.51,258.87 C1815.74,256.92 1814.91,255.52 1813.50,255.50 C1812.27,255.53 1811.01,257.96 1810.50,258.50 C1810.00,259.05 1806.75,261.05 1805.88,261.83 C1802.51,264.77 1797.66,266.70 1794.50,267.50 C1792.55,267.99 1782.66,269.83 1781.84,269.84 C1779.25,269.83 1759.73,265.46 1756.50,263.50 C1755.71,263.01 1747.74,257.48 1746.50,256.50 C1744.49,254.89 1739.75,249.05 1737.57,245.54 C1730.06,233.33 1728.58,223.17 1728.50,222.50 C1728.44,222.04 1728.59,219.29 1728.50,218.50 C1728.38,217.33 1727.43,212.95 1727.50,212.50 C1727.62,211.77 1728.66,210.03 1728.57,208.18 C1728.51,206.55 1728.36,202.99 1728.50,202.50 C1728.72,201.79 1729.31,201.22 1729.50,200.50 C1729.68,199.86 1729.54,197.77 1730.06,196.27 C1731.15,193.14 1734.72,185.68 1735.94,183.33 C1737.73,179.93 1741.09,175.14 1743.50,172.50 C1746.25,169.54 1750.95,165.69 1754.28,163.85 C1757.36,162.17 1763.97,159.21 1766.81,158.42 C1770.11,157.54 1772.88,157.74 1773.50,157.50 C1773.94,157.33 1774.08,156.72 1774.50,156.50 Z"/>
      <path d="M2067.50,156.50 C2067.85,156.38 2077.77,157.46 2080.65,158.13 C2083.54,158.81 2087.85,160.36 2089.50,161.50 C2096.07,166.10 2100.38,170.25 2101.63,170.28 C2102.89,170.26 2103.90,168.95 2103.92,167.27 C2103.92,165.39 2103.49,161.64 2103.50,161.50 C2103.68,159.98 2104.75,159.37 2106.94,159.48 C2107.33,159.50 2135.68,159.56 2136.50,159.50 C2138.32,159.41 2138.73,159.64 2139.02,161.01 C2139.52,163.86 2139.62,204.42 2139.64,223.43 C2139.61,239.36 2139.49,266.44 2138.50,275.50 C2138.43,276.13 2136.24,285.25 2135.50,287.50 C2134.36,290.91 2131.71,295.45 2129.22,298.28 C2128.34,299.27 2122.34,306.17 2120.50,307.50 C2119.67,308.10 2109.34,314.13 2108.50,314.50 C2106.83,315.23 2102.30,315.75 2100.50,316.50 C2099.56,316.89 2096.84,318.43 2096.50,318.50 C2095.85,318.64 2090.61,319.60 2088.41,319.50 C2086.70,319.43 2082.70,320.60 2080.02,320.65 C2079.31,320.66 2065.67,319.42 2059.50,318.17 C2056.51,317.51 2045.39,313.87 2044.50,313.50 C2043.40,313.03 2035.16,307.67 2032.50,305.50 C2029.73,303.21 2025.31,298.31 2023.50,295.50 C2021.89,292.97 2017.50,283.55 2017.50,283.50 C2017.47,282.09 2018.76,281.37 2020.91,281.49 C2022.24,281.58 2053.82,281.44 2056.97,281.18 C2058.07,281.16 2058.97,281.91 2059.46,283.19 C2060.20,285.11 2061.22,286.43 2063.16,287.67 C2066.42,289.73 2072.11,291.62 2074.89,291.67 C2077.68,291.69 2085.25,291.14 2087.18,290.71 C2090.58,289.89 2096.72,284.85 2098.50,282.50 C2099.53,281.11 2102.35,275.12 2102.50,274.50 C2102.64,273.92 2102.46,270.97 2102.50,270.50 C2102.56,269.81 2103.61,265.94 2103.50,262.50 C2103.27,256.43 2103.06,254.67 2102.50,254.50 C2101.41,254.24 2094.35,260.39 2091.68,261.92 C2089.04,263.40 2083.11,265.62 2078.96,266.87 C2076.19,267.68 2072.25,267.48 2070.49,268.02 C2068.56,268.61 2055.70,267.28 2048.40,264.45 C2044.63,262.96 2038.41,259.59 2035.59,257.46 C2033.00,255.48 2027.66,250.10 2026.50,248.50 C2024.75,246.04 2022.67,240.44 2020.91,238.29 C2019.23,236.25 2017.68,231.22 2017.50,230.50 C2017.34,229.85 2016.41,224.61 2016.52,222.67 C2016.63,220.48 2015.43,214.95 2015.50,214.50 C2015.62,213.77 2016.66,212.03 2016.58,210.15 C2016.53,208.50 2016.38,204.94 2016.50,204.50 C2016.70,203.78 2017.71,201.96 2018.00,199.89 C2018.52,196.22 2019.63,191.92 2021.50,188.50 C2022.61,186.50 2027.93,178.34 2030.20,175.34 C2032.81,171.92 2036.89,168.19 2040.31,165.92 C2043.05,164.14 2047.62,161.50 2050.50,160.50 C2052.41,159.85 2061.76,157.57 2062.50,157.50 C2063.84,157.37 2066.43,157.55 2066.50,157.50 C2066.90,157.24 2067.06,156.66 2067.50,156.50 Z"/>
      <path d="M1133.50,157.50 C1133.73,157.38 1140.08,157.63 1141.50,157.50 C1143.35,157.37 1145.00,157.70 1145.50,158.50 C1145.70,158.85 1146.01,190.04 1145.50,190.50 C1144.64,191.20 1141.81,190.14 1140.50,189.50 C1138.74,189.27 1134.80,188.41 1132.15,188.34 C1128.85,188.28 1123.57,188.80 1121.21,189.49 C1118.55,190.30 1112.39,193.96 1110.50,195.50 C1108.88,196.86 1106.03,202.36 1104.56,205.22 C1103.29,207.64 1102.38,214.40 1102.41,226.24 C1102.50,237.62 1102.50,259.15 1102.84,261.43 C1103.17,263.80 1102.81,264.85 1101.50,265.50 C1100.14,266.09 1067.88,265.66 1067.50,265.50 C1066.39,264.99 1066.51,261.41 1066.54,256.36 C1066.54,222.50 1066.74,166.74 1066.50,165.50 C1065.94,162.44 1066.21,160.41 1067.50,159.50 C1068.57,158.80 1101.20,159.36 1101.50,159.50 C1102.68,160.14 1102.35,165.84 1102.39,168.99 C1102.42,170.51 1102.61,172.65 1102.86,174.07 C1103.09,175.27 1104.49,175.99 1105.50,175.50 C1105.80,175.35 1109.84,169.80 1112.22,167.51 C1117.37,162.64 1124.66,159.62 1128.36,158.86 C1130.06,158.52 1131.88,158.74 1132.50,158.50 C1132.94,158.33 1133.08,157.72 1133.50,157.50 Z"/>
      <path d="M1293.50,157.50 C1295.28,156.85 1314.78,158.84 1318.94,160.74 C1320.68,161.56 1324.43,164.15 1327.50,166.50 C1329.57,168.10 1332.67,171.98 1335.11,175.84 C1337.43,179.58 1339.60,185.59 1340.04,189.58 C1340.45,193.54 1340.78,263.79 1340.50,264.50 C1339.99,265.63 1334.59,265.40 1330.64,265.41 C1323.83,265.45 1311.48,265.57 1306.55,265.02 C1304.92,264.81 1303.85,263.98 1303.93,262.90 C1304.01,262.08 1304.57,260.10 1304.57,258.01 C1304.63,250.93 1304.69,234.67 1304.67,225.49 C1304.56,213.63 1303.43,204.71 1303.54,202.57 C1303.63,200.39 1301.60,194.29 1300.05,192.27 C1298.24,190.00 1295.00,187.53 1292.12,186.64 C1290.44,186.15 1287.55,185.49 1286.50,185.50 C1284.94,185.52 1277.56,186.85 1276.72,187.29 C1274.30,188.58 1270.19,191.65 1268.98,193.27 C1268.19,194.35 1267.29,195.87 1266.40,197.68 C1265.03,200.55 1264.41,206.36 1264.27,211.26 C1264.24,213.15 1264.27,257.51 1264.84,261.29 C1265.18,263.69 1264.81,264.83 1263.50,265.50 C1262.19,266.09 1229.88,265.66 1229.50,265.50 C1228.39,264.99 1228.51,261.41 1228.54,256.36 C1228.54,222.50 1228.74,166.74 1228.50,165.50 C1227.94,162.44 1228.21,160.41 1229.50,159.50 C1230.57,158.80 1263.16,159.36 1263.50,159.50 C1264.30,159.90 1264.58,161.15 1264.50,163.50 C1264.36,166.95 1264.94,171.29 1265.50,171.50 C1266.61,171.83 1273.42,165.78 1277.15,163.02 C1279.79,161.10 1283.96,160.33 1285.41,159.49 C1286.86,158.66 1288.31,158.30 1289.73,158.43 C1291.23,158.58 1292.80,157.76 1293.50,157.50 Z"/>
      <path d="M1945.50,157.50 C1947.28,156.85 1966.78,158.84 1970.94,160.74 C1972.68,161.56 1976.43,164.15 1979.50,166.50 C1981.57,168.10 1984.67,171.98 1987.11,175.84 C1989.43,179.58 1991.60,185.59 1992.04,189.58 C1992.45,193.54 1992.78,263.79 1992.50,264.50 C1991.99,265.63 1986.59,265.40 1982.64,265.41 C1975.83,265.45 1963.48,265.57 1958.55,265.02 C1956.92,264.81 1955.85,263.98 1955.93,262.90 C1956.01,262.08 1956.57,260.10 1956.57,258.01 C1956.63,250.93 1956.69,234.67 1956.67,225.49 C1956.56,213.63 1955.43,204.71 1955.54,202.57 C1955.63,200.39 1953.60,194.29 1952.05,192.27 C1950.24,190.00 1947.00,187.53 1944.12,186.64 C1942.44,186.15 1939.55,185.49 1938.50,185.50 C1936.94,185.52 1929.56,186.85 1928.72,187.29 C1926.30,188.58 1922.19,191.65 1920.98,193.27 C1920.19,194.35 1919.29,195.87 1918.40,197.68 C1917.03,200.55 1916.41,206.36 1916.27,211.26 C1916.24,213.15 1916.27,257.51 1916.84,261.29 C1917.18,263.69 1916.81,264.83 1915.50,265.50 C1914.19,266.09 1881.88,265.66 1881.50,265.50 C1880.39,264.99 1880.51,261.41 1880.54,256.36 C1880.54,222.50 1880.74,166.74 1880.50,165.50 C1879.94,162.44 1880.21,160.41 1881.50,159.50 C1882.57,158.80 1915.16,159.36 1915.50,159.50 C1916.30,159.90 1916.58,161.15 1916.50,163.50 C1916.36,166.95 1916.94,171.29 1917.50,171.50 C1918.61,171.83 1925.42,165.78 1929.15,163.02 C1931.79,161.10 1935.96,160.33 1937.41,159.49 C1938.86,158.66 1940.31,158.30 1941.73,158.43 C1943.23,158.58 1944.80,157.76 1945.50,157.50 Z"/>
      <path d="M925.50,159.50 C925.54,159.48 959.31,159.40 959.50,159.50 C960.53,160.09 960.53,175.25 960.50,182.59 C960.52,190.21 960.52,204.66 960.50,211.50 C960.34,224.36 960.93,228.35 962.13,231.13 C962.81,232.62 964.60,234.86 966.30,236.30 C969.09,238.61 975.29,240.60 977.36,240.54 C979.68,240.44 985.51,240.93 987.50,240.50 C989.87,239.96 995.99,236.38 997.39,234.47 C997.65,234.11 999.01,231.49 999.65,230.33 C1000.72,228.35 1001.62,221.61 1001.57,210.99 C1001.56,194.96 1001.23,161.16 1001.50,160.50 C1001.91,159.62 1009.72,159.51 1011.36,159.52 C1018.17,159.51 1030.52,159.44 1035.45,159.98 C1037.08,160.19 1038.14,161.01 1038.07,162.11 C1037.99,162.92 1037.35,168.64 1037.41,171.90 C1037.43,187.30 1037.63,227.00 1037.50,228.50 C1037.25,231.30 1036.09,238.48 1035.30,241.77 C1034.40,245.37 1032.75,248.26 1029.50,252.50 C1028.20,254.16 1025.23,257.88 1024.50,258.50 C1023.82,259.07 1020.86,260.28 1020.50,260.50 C1020.01,260.79 1017.06,263.22 1016.50,263.50 C1015.90,263.80 1012.87,264.36 1012.50,264.50 C1010.50,265.50 1007.94,266.69 1002.43,267.78 C993.40,269.44 982.43,269.93 974.50,269.50 C968.09,269.15 954.62,267.55 949.61,265.33 C946.49,263.91 940.02,260.34 937.36,258.19 C934.68,255.99 930.49,251.15 928.96,248.46 C927.53,245.89 925.48,239.28 924.98,236.64 C924.36,233.36 924.53,196.32 924.52,181.17 C924.54,177.12 924.56,169.62 924.57,166.17 C924.58,164.04 924.78,159.93 925.50,159.50 Z"/>
      <path d="M1165.50,159.50 C1166.57,158.80 1199.32,159.41 1199.50,159.50 C1200.60,160.15 1200.50,163.60 1200.47,168.65 C1200.46,202.50 1200.26,258.27 1200.50,259.50 C1201.06,262.56 1200.80,264.59 1199.50,265.50 C1198.43,266.20 1165.68,265.59 1165.50,265.50 C1164.41,264.85 1164.51,261.40 1164.54,256.36 C1164.54,222.50 1164.74,166.74 1164.50,165.50 C1163.94,162.44 1164.21,160.41 1165.50,159.50 Z"/>
      <path d="M1357.50,279.50 C1357.71,279.36 1470.47,279.48 1471.53,279.64 C1472.85,279.87 1474.07,281.11 1474.08,282.22 C1473.35,290.11 1473.71,301.94 1473.50,302.50 C1473.08,303.50 1471.98,303.71 1469.50,303.50 C1468.26,303.37 1384.13,303.59 1359.47,303.69 C1357.89,303.64 1356.70,303.18 1356.51,302.30 C1356.41,301.80 1356.38,281.96 1356.51,281.31 C1356.69,280.45 1357.02,279.84 1357.50,279.50 Z"/>
      <path d="M1550.50,377.50 C1547.51,376.11 1542.16,375.04 1537.68,375.13 C1535.69,375.20 1532.78,375.96 1530.79,376.92 C1529.16,377.74 1528.30,378.74 1527.50,380.50 C1527.14,381.38 1525.57,384.20 1525.50,384.50 C1525.36,385.15 1524.38,390.26 1524.41,392.84 C1524.45,395.67 1524.68,403.18 1524.68,403.94 C1524.70,405.56 1523.84,409.89 1523.86,410.08 C1524.06,411.64 1525.93,412.74 1527.95,412.83 C1537.55,412.96 1549.26,412.47 1549.50,412.50 C1551.05,412.73 1551.63,413.74 1551.55,415.96 C1551.53,416.39 1551.69,435.54 1551.64,439.04 C1551.60,441.17 1551.16,442.46 1550.16,442.66 C1549.99,442.69 1532.64,442.21 1528.15,442.32 C1525.89,442.36 1524.56,442.89 1524.35,443.99 C1524.34,444.07 1524.35,513.03 1523.85,517.04 C1523.68,518.28 1523.06,518.97 1521.99,518.92 C1514.27,518.40 1499.46,518.62 1492.09,518.61 C1489.82,518.62 1488.69,518.17 1488.47,517.00 C1488.42,516.70 1488.40,447.73 1487.93,443.97 C1487.74,442.74 1486.91,441.97 1485.73,442.02 C1484.97,442.07 1479.65,442.52 1477.30,442.69 C1475.99,442.75 1474.96,442.20 1474.73,441.15 C1474.48,439.81 1474.47,414.72 1474.50,414.50 C1474.76,412.93 1475.75,412.37 1477.94,412.55 C1478.67,412.62 1483.28,412.69 1485.06,412.71 C1486.93,412.69 1488.67,412.07 1488.86,411.15 C1489.00,410.27 1488.40,402.61 1488.38,399.20 C1488.56,389.19 1489.50,379.12 1490.65,375.07 C1491.38,372.57 1494.28,366.45 1495.50,364.50 C1497.66,361.12 1501.64,357.47 1505.87,354.40 C1511.01,350.70 1514.49,348.32 1516.58,347.92 C1518.07,347.66 1519.26,347.23 1520.61,346.46 C1522.16,345.57 1523.86,345.67 1524.50,345.50 C1525.22,345.32 1525.78,344.70 1526.50,344.50 C1527.15,344.33 1532.01,343.33 1535.37,343.57 C1539.76,343.92 1545.20,345.09 1548.56,346.47 C1550.00,347.10 1551.32,348.20 1551.52,349.10 C1551.57,349.36 1551.61,375.07 1551.50,375.50 C1551.40,375.87 1551.07,376.54 1550.50,377.50"/>
      <path d="M1633.50,377.50 C1630.51,376.11 1625.16,375.04 1620.68,375.13 C1618.69,375.20 1615.78,375.96 1613.79,376.92 C1612.16,377.74 1611.30,378.74 1610.50,380.50 C1610.14,381.38 1608.57,384.20 1608.50,384.50 C1608.36,385.15 1607.38,390.26 1607.41,392.84 C1607.45,395.67 1607.68,403.18 1607.68,403.94 C1607.70,405.56 1606.84,409.89 1606.86,410.08 C1607.06,411.64 1608.93,412.74 1610.95,412.83 C1620.55,412.96 1632.26,412.47 1632.50,412.50 C1634.05,412.73 1634.63,413.74 1634.55,415.96 C1634.53,416.39 1634.69,435.54 1634.64,439.04 C1634.60,441.17 1634.16,442.46 1633.16,442.66 C1632.99,442.69 1615.64,442.21 1611.15,442.32 C1608.89,442.36 1607.56,442.89 1607.35,443.99 C1607.34,444.07 1607.35,513.03 1606.85,517.04 C1606.68,518.28 1606.06,518.97 1604.99,518.92 C1597.27,518.40 1582.46,518.62 1575.09,518.61 C1572.82,518.62 1571.69,518.17 1571.47,517.00 C1571.42,516.70 1571.40,447.73 1570.93,443.97 C1570.74,442.74 1569.91,441.97 1568.73,442.02 C1567.97,442.07 1562.65,442.52 1560.30,442.69 C1558.99,442.75 1557.96,442.20 1557.73,441.15 C1557.48,439.81 1557.47,414.72 1557.50,414.50 C1557.76,412.93 1558.75,412.37 1560.94,412.55 C1561.67,412.62 1566.28,412.69 1568.06,412.71 C1569.93,412.69 1571.67,412.07 1571.86,411.15 C1572.00,410.27 1571.40,402.61 1571.38,399.20 C1571.56,389.19 1572.50,379.12 1573.65,375.07 C1574.38,372.57 1577.28,366.45 1578.50,364.50 C1580.66,361.12 1584.64,357.47 1588.87,354.40 C1594.01,350.70 1597.49,348.32 1599.58,347.92 C1601.07,347.66 1602.26,347.23 1603.61,346.46 C1605.16,345.57 1606.86,345.67 1607.50,345.50 C1608.22,345.32 1608.78,344.70 1609.50,344.50 C1610.15,344.33 1615.01,343.33 1618.37,343.57 C1622.76,343.92 1628.20,345.09 1631.56,346.47 C1633.00,347.10 1634.32,348.20 1634.52,349.10 C1634.57,349.36 1634.61,375.07 1634.50,375.50 C1634.40,375.87 1634.07,376.54 1633.50,377.50"/>
      <path d="M2032.50,345.50 C2033.42,345.03 2066.34,345.42 2066.50,345.50 C2067.46,346.05 2067.54,360.53 2067.56,366.65 C2067.54,402.22 2067.51,465.65 2067.50,493.50 C2067.61,501.23 2067.68,512.13 2067.65,515.31 C2067.61,517.19 2067.18,518.29 2066.18,518.50 C2066.16,518.50 2032.98,518.59 2031.50,517.50 C2030.97,517.07 2031.51,510.71 2031.54,508.53 C2031.59,477.60 2031.60,410.10 2031.55,373.54 C2031.51,355.79 2031.40,347.79 2031.47,347.31 C2031.65,346.39 2031.99,345.79 2032.50,345.50 Z"/>
      <path d="M1667.50,349.50 C1669.05,348.73 1673.78,350.62 1675.17,350.86 C1677.94,351.41 1683.43,355.08 1685.42,357.75 C1687.61,360.83 1689.34,366.13 1689.56,370.44 C1689.69,373.96 1687.91,379.16 1686.24,381.47 C1684.68,383.52 1678.31,388.92 1675.49,389.85 C1672.92,390.65 1666.45,390.62 1664.36,390.10 C1662.63,389.64 1658.28,387.47 1656.45,386.13 C1654.39,384.60 1651.53,380.71 1650.39,378.49 C1649.48,376.67 1648.27,371.45 1648.25,370.90 C1648.24,369.13 1650.76,360.98 1652.50,358.50 C1653.63,356.92 1655.63,355.07 1658.23,353.04 C1660.08,351.63 1661.85,351.66 1662.50,351.50 C1663.17,351.17 1663.83,350.83 1664.50,350.50 C1665.15,350.35 1665.87,350.71 1666.50,350.50 C1666.95,350.35 1667.08,349.72 1667.50,349.50 Z"/>
      <path d="M1835.50,349.50 C1837.05,348.73 1841.78,350.62 1843.17,350.86 C1845.94,351.41 1851.43,355.08 1853.42,357.75 C1855.61,360.83 1857.34,366.13 1857.56,370.44 C1857.69,373.96 1855.91,379.16 1854.24,381.47 C1852.68,383.52 1846.31,388.92 1843.49,389.85 C1840.92,390.65 1834.45,390.62 1832.36,390.10 C1830.63,389.64 1826.28,387.47 1824.45,386.13 C1822.39,384.60 1819.53,380.71 1818.39,378.49 C1817.48,376.67 1816.27,371.45 1816.25,370.90 C1816.24,369.13 1818.76,360.98 1820.50,358.50 C1821.63,356.92 1823.63,355.07 1826.23,353.04 C1828.08,351.63 1829.85,351.66 1830.50,351.50 C1831.17,351.17 1831.83,350.83 1832.50,350.50 C1833.15,350.35 1833.87,350.71 1834.50,350.50 C1834.95,350.35 1835.08,349.72 1835.50,349.50 Z"/>
      <path d="M1393.50,408.50 C1394.73,408.06 1410.68,409.58 1414.44,410.41 C1419.96,411.66 1434.86,418.24 1439.50,421.50 C1442.80,423.85 1447.80,428.72 1450.49,431.93 C1452.85,434.79 1455.83,439.89 1457.36,443.57 C1458.53,446.46 1460.52,453.02 1461.01,455.44 C1461.86,459.72 1461.36,474.60 1460.50,478.50 C1460.00,480.74 1457.85,487.73 1456.50,490.50 C1455.09,493.36 1450.29,500.39 1448.50,502.50 C1446.04,505.35 1440.99,509.26 1437.72,511.26 C1429.61,516.19 1422.38,519.08 1415.05,520.91 C1409.86,522.17 1397.86,522.89 1391.74,522.70 C1385.36,522.46 1370.52,518.45 1365.51,516.08 C1362.60,514.68 1356.14,510.33 1353.25,507.95 C1350.33,505.50 1346.47,501.05 1344.07,497.74 C1342.23,495.17 1339.69,490.84 1338.50,487.50 C1335.09,477.76 1334.50,471.50 1334.50,469.50 C1334.45,469.16 1333.50,466.13 1333.50,465.50 C1333.50,464.87 1334.45,461.84 1334.50,461.50 C1334.56,461.13 1334.60,456.22 1335.49,452.13 C1336.33,448.41 1338.72,442.52 1340.78,439.13 C1342.79,435.86 1346.69,430.53 1349.20,427.83 C1351.48,425.41 1356.56,421.33 1359.50,419.50 C1365.44,415.85 1380.48,410.07 1385.50,409.50 C1387.68,409.25 1390.82,409.67 1391.50,409.50 C1392.22,409.32 1392.80,408.75 1393.50,408.50 Z"/>
      <path d="M1793.50,443.50 C1789.29,441.77 1785.37,440.31 1782.72,439.92 C1781.73,439.78 1773.59,439.33 1772.02,439.33 C1769.17,439.36 1763.86,441.09 1761.37,443.04 C1759.81,444.29 1755.54,447.28 1753.86,449.47 C1751.68,452.40 1749.52,458.17 1748.85,462.17 C1748.22,466.21 1748.81,472.71 1750.15,476.31 C1751.63,480.14 1753.29,482.69 1756.50,485.50 C1762.15,490.30 1763.73,491.20 1768.16,492.02 C1769.72,492.28 1770.53,492.51 1772.61,493.18 C1774.19,493.68 1781.84,492.59 1782.50,492.50 C1782.89,492.44 1786.36,491.19 1787.96,490.61 C1789.84,489.94 1792.30,487.58 1793.50,487.50 C1794.21,487.48 1794.55,489.90 1794.52,491.86 C1794.31,497.83 1794.67,509.30 1794.83,513.11 C1794.85,514.72 1793.92,516.70 1792.72,517.56 C1792.05,518.02 1776.48,522.13 1772.25,522.44 C1766.79,522.80 1750.93,519.90 1745.38,517.75 C1742.22,516.50 1733.77,511.60 1732.50,510.50 C1731.80,509.88 1729.10,507.95 1728.50,507.50 C1728.20,507.27 1726.23,504.32 1725.50,503.50 C1725.08,503.02 1721.93,500.08 1721.50,499.50 C1721.06,498.91 1719.77,495.92 1719.50,495.50 C1719.23,495.06 1716.80,492.10 1716.50,491.50 C1716.19,490.88 1715.61,487.82 1715.50,487.50 C1715.41,487.25 1712.86,481.95 1711.97,478.22 C1711.58,476.54 1711.38,473.92 1711.46,471.99 C1711.57,469.76 1710.66,468.23 1710.50,467.50 C1710.43,467.15 1711.36,464.42 1711.50,463.50 C1711.62,462.76 1711.52,457.52 1712.50,453.50 C1712.77,452.44 1715.50,443.76 1716.50,441.50 C1718.10,437.95 1722.49,431.31 1724.90,428.74 C1727.38,426.12 1732.77,421.62 1735.94,419.38 C1739.17,417.12 1745.04,414.29 1748.66,413.07 C1755.89,410.68 1769.83,409.12 1775.62,409.70 C1778.65,410.03 1789.06,412.55 1792.07,413.97 C1793.89,414.86 1794.97,416.03 1794.88,417.08 C1794.44,420.72 1794.54,434.71 1794.56,438.78 C1794.62,441.10 1793.50,442.76 1793.50,443.50 C1793.50,443.97 1794.32,444.07 1794.50,444.50 C1794.62,444.77 1794.62,445.43 1794.50,446.50"/>
      <path d="M1925.50,409.50 C1926.95,408.78 1941.15,410.25 1947.18,411.81 C1949.76,412.49 1953.41,414.41 1955.44,415.31 C1957.32,416.17 1961.83,421.07 1963.70,421.60 C1964.89,421.89 1966.07,421.09 1966.34,419.85 C1966.54,418.86 1966.39,415.99 1966.34,415.23 C1966.27,413.91 1966.80,413.03 1967.94,412.78 C1970.94,412.20 2002.34,412.44 2002.50,412.50 C2003.59,412.99 2003.50,416.61 2003.46,421.65 C2003.46,455.50 2003.26,511.31 2003.50,512.50 C2004.08,515.59 2003.83,517.61 2002.50,518.50 C2001.36,519.21 1974.71,518.51 1974.50,518.50 C1971.42,518.36 1967.34,518.92 1966.50,517.50 C1966.16,516.88 1966.32,513.51 1966.51,511.87 C1966.74,509.92 1965.91,508.52 1964.50,508.50 C1963.27,508.53 1962.01,510.96 1961.50,511.50 C1961.00,512.05 1957.75,514.05 1956.88,514.83 C1953.51,517.77 1948.66,519.70 1945.50,520.50 C1943.55,520.99 1933.66,522.83 1932.84,522.84 C1930.25,522.83 1910.73,518.46 1907.50,516.50 C1906.71,516.01 1898.74,510.48 1897.50,509.50 C1895.49,507.89 1890.75,502.05 1888.57,498.54 C1881.06,486.33 1879.58,476.17 1879.50,475.50 C1879.44,475.04 1879.59,472.29 1879.50,471.50 C1879.38,470.33 1878.43,465.95 1878.50,465.50 C1878.62,464.77 1879.66,463.03 1879.57,461.18 C1879.51,459.55 1879.36,455.99 1879.50,455.50 C1879.72,454.79 1880.31,454.22 1880.50,453.50 C1880.68,452.86 1880.54,450.77 1881.06,449.27 C1882.15,446.14 1885.72,438.68 1886.94,436.33 C1888.73,432.93 1892.09,428.14 1894.50,425.50 C1897.25,422.54 1901.95,418.69 1905.28,416.85 C1908.36,415.17 1914.97,412.21 1917.81,411.42 C1921.11,410.54 1923.88,410.74 1924.50,410.50 C1924.94,410.33 1925.08,409.72 1925.50,409.50 Z"/>
      <path d="M1262.50,410.50 C1264.28,409.85 1283.78,411.84 1287.94,413.74 C1289.68,414.56 1293.43,417.15 1296.50,419.50 C1298.57,421.10 1301.67,424.98 1304.11,428.84 C1306.43,432.58 1308.60,438.59 1309.04,442.58 C1309.45,446.54 1309.78,516.79 1309.50,517.50 C1308.99,518.63 1303.59,518.40 1299.64,518.41 C1292.83,518.45 1280.48,518.57 1275.55,518.02 C1273.92,517.81 1272.85,516.98 1272.93,515.90 C1273.01,515.08 1273.57,513.10 1273.57,511.01 C1273.63,503.93 1273.69,487.67 1273.67,478.49 C1273.56,466.63 1272.43,457.71 1272.54,455.57 C1272.63,453.39 1270.60,447.29 1269.05,445.27 C1267.24,443.00 1264.00,440.53 1261.12,439.64 C1259.44,439.15 1256.55,438.49 1255.50,438.50 C1253.94,438.52 1246.56,439.85 1245.72,440.29 C1243.30,441.58 1239.19,444.65 1237.98,446.27 C1237.19,447.35 1236.29,448.87 1235.40,450.68 C1234.03,453.55 1233.41,459.36 1233.27,464.26 C1233.24,466.15 1233.27,510.51 1233.84,514.29 C1234.18,516.69 1233.81,517.83 1232.50,518.50 C1231.19,519.09 1198.88,518.66 1198.50,518.50 C1197.39,517.99 1197.51,514.41 1197.54,509.36 C1197.54,475.50 1197.74,419.74 1197.50,418.50 C1196.94,415.44 1197.21,413.41 1198.50,412.50 C1199.57,411.80 1232.16,412.36 1232.50,412.50 C1233.30,412.90 1233.58,414.15 1233.50,416.50 C1233.36,419.95 1233.94,424.29 1234.50,424.50 C1235.61,424.83 1242.42,418.78 1246.15,416.02 C1248.79,414.10 1252.96,413.33 1254.41,412.49 C1255.86,411.66 1257.31,411.30 1258.73,411.43 C1260.23,411.58 1261.80,410.76 1262.50,410.50 Z"/>
      <path d="M1057.50,412.50 C1057.54,412.48 1091.31,412.40 1091.50,412.50 C1092.53,413.09 1092.53,428.25 1092.50,435.59 C1092.52,443.21 1092.52,457.66 1092.50,464.50 C1092.34,477.36 1092.93,481.35 1094.13,484.13 C1094.81,485.62 1096.60,487.86 1098.30,489.30 C1101.09,491.61 1107.29,493.60 1109.36,493.54 C1111.68,493.44 1117.51,493.93 1119.50,493.50 C1121.87,492.96 1127.99,489.38 1129.39,487.47 C1129.65,487.11 1131.01,484.49 1131.65,483.33 C1132.72,481.35 1133.62,474.61 1133.57,463.99 C1133.56,447.96 1133.23,414.16 1133.50,413.50 C1133.91,412.62 1141.72,412.51 1143.36,412.52 C1150.17,412.51 1162.52,412.44 1167.45,412.98 C1169.08,413.19 1170.14,414.01 1170.07,415.11 C1169.99,415.92 1169.35,421.64 1169.41,424.90 C1169.43,440.30 1169.63,480.00 1169.50,481.50 C1169.25,484.30 1168.09,491.48 1167.30,494.77 C1166.40,498.37 1164.75,501.26 1161.50,505.50 C1160.20,507.16 1157.23,510.88 1156.50,511.50 C1155.82,512.07 1152.86,513.28 1152.50,513.50 C1152.01,513.79 1149.06,516.22 1148.50,516.50 C1147.90,516.80 1144.87,517.36 1144.50,517.50 C1142.50,518.50 1139.94,519.69 1134.43,520.78 C1125.40,522.44 1114.43,522.93 1106.50,522.50 C1100.09,522.15 1086.62,520.55 1081.61,518.33 C1078.49,516.91 1072.02,513.34 1069.36,511.19 C1066.68,508.99 1062.49,504.15 1060.96,501.46 C1059.53,498.89 1057.48,492.28 1056.98,489.64 C1056.36,486.36 1056.53,449.32 1056.52,434.17 C1056.54,430.12 1056.56,422.62 1056.57,419.17 C1056.58,417.04 1056.78,412.93 1057.50,412.50 Z"/>
      <path d="M1652.50,412.50 C1653.57,411.80 1686.32,412.41 1686.50,412.50 C1687.60,413.15 1687.50,416.60 1687.47,421.65 C1687.46,455.50 1687.26,511.27 1687.50,512.50 C1688.06,515.56 1687.80,517.59 1686.50,518.50 C1685.43,519.20 1652.68,518.59 1652.50,518.50 C1651.41,517.85 1651.51,514.40 1651.54,509.36 C1651.54,475.50 1651.74,419.74 1651.50,418.50 C1650.94,415.44 1651.21,413.41 1652.50,412.50 Z"/>
      <path d="M1820.50,412.50 C1821.57,411.80 1854.32,412.41 1854.50,412.50 C1855.60,413.15 1855.50,416.60 1855.47,421.65 C1855.46,455.50 1855.26,511.27 1855.50,512.50 C1856.06,515.56 1855.80,517.59 1854.50,518.50 C1853.43,519.20 1820.68,518.59 1820.50,518.50 C1819.41,517.85 1819.51,514.40 1819.54,509.36 C1819.54,475.50 1819.74,419.74 1819.50,418.50 C1818.94,415.44 1819.21,413.41 1820.50,412.50 Z"/>
      <path d="M1402.50,630.50 C1399.51,629.11 1394.16,628.04 1389.68,628.13 C1387.69,628.20 1384.78,628.96 1382.79,629.92 C1381.16,630.74 1380.30,631.74 1379.50,633.50 C1379.14,634.38 1377.57,637.20 1377.50,637.50 C1377.36,638.15 1376.38,643.26 1376.41,645.84 C1376.45,648.67 1376.68,656.18 1376.68,656.94 C1376.70,658.56 1375.84,662.89 1375.86,663.08 C1376.06,664.64 1377.93,665.74 1379.95,665.83 C1389.55,665.96 1401.26,665.47 1401.50,665.50 C1403.05,665.73 1403.63,666.74 1403.55,668.96 C1403.53,669.39 1403.69,688.54 1403.64,692.04 C1403.60,694.17 1403.16,695.46 1402.16,695.66 C1401.99,695.69 1384.64,695.21 1380.15,695.32 C1377.89,695.36 1376.56,695.89 1376.35,696.99 C1376.34,697.07 1376.35,766.03 1375.85,770.04 C1375.68,771.28 1375.06,771.97 1373.99,771.92 C1366.27,771.40 1351.46,771.62 1344.09,771.61 C1341.82,771.62 1340.69,771.17 1340.47,770.00 C1340.42,769.70 1340.40,700.73 1339.93,696.97 C1339.74,695.74 1338.91,694.97 1337.73,695.02 C1336.97,695.07 1331.65,695.52 1329.30,695.69 C1327.99,695.75 1326.96,695.20 1326.73,694.15 C1326.48,692.81 1326.47,667.72 1326.50,667.50 C1326.76,665.93 1327.75,665.37 1329.94,665.55 C1330.67,665.62 1335.28,665.69 1337.06,665.71 C1338.93,665.69 1340.67,665.07 1340.86,664.15 C1341.00,663.27 1340.40,655.61 1340.38,652.20 C1340.56,642.19 1341.50,632.12 1342.65,628.07 C1343.38,625.57 1346.28,619.45 1347.50,617.50 C1349.66,614.12 1353.64,610.47 1357.87,607.40 C1363.01,603.70 1366.49,601.32 1368.58,600.92 C1370.07,600.66 1371.26,600.23 1372.61,599.46 C1374.16,598.57 1375.86,598.67 1376.50,598.50 C1377.22,598.32 1377.78,597.70 1378.50,597.50 C1379.15,597.33 1384.01,596.33 1387.37,596.57 C1391.76,596.92 1397.20,598.09 1400.56,599.47 C1402.00,600.10 1403.32,601.20 1403.52,602.10 C1403.57,602.36 1403.61,628.07 1403.50,628.50 C1403.40,628.87 1403.07,629.54 1402.50,630.50"/>
      <path d="M1904.50,602.50 C1906.05,601.73 1910.78,603.62 1912.17,603.86 C1914.94,604.41 1920.43,608.08 1922.42,610.75 C1924.61,613.83 1926.34,619.13 1926.56,623.44 C1926.69,626.96 1924.91,632.16 1923.24,634.47 C1921.68,636.52 1915.31,641.92 1912.49,642.85 C1909.92,643.65 1903.45,643.62 1901.36,643.10 C1899.63,642.64 1895.28,640.47 1893.45,639.13 C1891.39,637.60 1888.53,633.71 1887.39,631.49 C1886.48,629.67 1885.27,624.45 1885.25,623.90 C1885.24,622.13 1887.76,613.98 1889.50,611.50 C1890.63,609.92 1892.63,608.07 1895.23,606.04 C1897.08,604.63 1898.85,604.66 1899.50,604.50 C1900.17,604.17 1900.83,603.83 1901.50,603.50 C1902.15,603.35 1902.87,603.71 1903.50,603.50 C1903.95,603.35 1904.08,602.72 1904.50,602.50 Z"/>
      <path d="M1957.50,633.50 C1958.42,633.03 1991.34,633.44 1991.50,633.50 C1992.51,633.98 1992.54,650.50 1992.50,657.50 C1992.58,660.95 1992.09,664.78 1993.50,665.50 C1994.45,665.95 2013.08,665.38 2013.50,665.50 C2014.52,665.83 2014.72,666.89 2014.50,669.50 C2014.46,669.87 2014.38,679.68 2014.37,683.90 C2014.41,690.53 2014.60,694.87 2013.50,695.50 C2013.26,695.62 2001.20,695.29 1999.30,695.28 C1993.86,695.37 1992.48,695.91 1992.27,696.98 C1992.14,697.81 1992.35,766.03 1991.85,770.04 C1991.68,771.28 1991.06,771.97 1989.99,771.92 C1982.27,771.40 1967.46,771.62 1960.09,771.61 C1957.82,771.62 1956.69,771.17 1956.47,770.00 C1956.42,769.70 1956.40,700.73 1955.93,696.97 C1955.74,695.75 1954.90,694.95 1953.73,695.01 C1952.97,695.06 1946.01,695.71 1945.28,695.60 C1943.97,695.36 1943.33,694.17 1943.26,692.04 C1942.96,683.68 1943.17,672.46 1943.30,668.96 C1943.38,666.85 1943.87,665.55 1944.89,665.34 C1945.26,665.28 1954.47,665.90 1955.50,665.50 C1956.44,665.09 1956.65,664.05 1956.50,661.50 C1956.45,660.83 1956.50,637.54 1956.50,637.50 C1956.40,635.78 1956.74,633.93 1957.50,633.50 Z"/>
      <path d="M1850.50,690.50 C1847.76,690.00 1842.81,687.57 1842.50,687.50 C1837.07,686.40 1826.54,686.36 1822.50,687.50 C1820.98,687.97 1819.19,689.29 1818.50,690.50 C1818.11,691.23 1817.47,694.66 1817.34,696.01 C1817.26,697.53 1817.95,700.08 1819.07,700.81 C1820.94,701.96 1843.95,707.46 1846.09,708.68 C1847.48,709.50 1848.87,709.30 1849.50,709.50 C1849.95,709.64 1856.21,714.12 1857.50,715.47 C1861.18,719.40 1863.87,723.70 1864.98,727.45 C1865.50,729.25 1866.37,734.71 1866.50,735.50 C1866.95,738.28 1864.47,749.77 1860.48,756.62 C1858.63,759.73 1854.67,763.34 1850.78,765.97 C1847.82,767.95 1843.72,770.34 1840.50,771.50 C1839.54,771.84 1830.91,774.39 1828.00,774.95 C1813.69,777.63 1795.93,773.38 1793.71,772.58 C1782.15,768.42 1776.04,765.46 1776.03,765.45 C1774.74,764.58 1774.36,762.78 1775.16,761.25 C1779.28,754.16 1785.82,740.30 1787.50,739.50 C1787.94,739.34 1788.91,740.91 1790.53,741.81 C1797.28,745.67 1809.25,749.22 1815.44,749.88 C1818.25,750.14 1823.65,748.54 1826.31,746.66 C1827.69,745.65 1829.27,743.36 1829.61,741.87 C1829.82,740.82 1829.80,737.33 1829.50,736.50 C1828.94,735.11 1827.09,733.28 1825.50,732.50 C1821.93,730.84 1808.11,728.59 1802.57,726.40 C1800.26,725.48 1792.47,722.09 1791.04,721.05 C1790.58,720.70 1784.11,713.33 1783.25,710.54 C1782.78,708.95 1781.48,702.00 1781.50,699.50 C1781.54,697.29 1782.67,689.92 1783.50,687.50 C1784.86,683.69 1789.06,677.76 1791.91,675.03 C1793.73,673.31 1800.04,667.99 1801.78,667.10 C1802.63,666.69 1815.81,662.17 1822.03,662.43 C1823.75,662.51 1827.94,661.34 1829.50,661.33 C1831.08,661.34 1835.57,662.61 1837.45,662.55 C1840.84,662.44 1858.97,666.57 1860.78,668.24 C1861.64,669.09 1861.38,671.34 1860.56,672.57 C1856.27,678.33 1851.76,687.81 1850.50,690.50"/>
      <path d="M2080.50,661.50 C2082.56,660.75 2101.87,663.08 2106.37,664.67 C2108.83,665.54 2112.21,666.22 2115.33,668.02 C2119.87,670.67 2125.74,674.78 2128.22,677.09 C2130.71,679.47 2132.67,682.54 2135.50,687.50 C2138.03,691.99 2139.33,694.71 2140.59,698.79 C2141.45,701.63 2143.70,710.01 2143.67,711.89 C2143.49,713.54 2143.28,716.56 2144.19,720.70 C2144.64,722.90 2144.30,724.25 2143.08,724.46 C2142.79,724.50 2075.78,724.39 2066.18,724.22 C2064.91,724.25 2063.73,725.03 2063.47,726.11 C2063.24,727.18 2064.43,734.52 2065.36,737.19 C2066.79,741.20 2068.80,744.81 2071.50,746.50 C2073.36,747.63 2079.91,750.83 2081.53,750.77 C2082.19,750.73 2090.33,750.59 2091.50,750.50 C2095.61,750.15 2099.01,748.96 2101.38,747.26 C2103.59,745.63 2106.69,741.06 2108.13,740.73 C2109.33,740.49 2137.43,740.49 2137.86,740.47 C2140.23,740.37 2141.49,741.05 2141.50,742.50 C2141.49,742.75 2137.91,751.25 2135.50,754.50 C2133.53,757.12 2128.86,761.74 2124.51,765.72 C2122.05,767.97 2117.26,769.95 2116.25,770.34 C2110.08,772.77 2099.66,775.17 2094.50,775.50 C2087.19,775.95 2075.51,775.45 2067.09,773.26 C2064.25,772.50 2060.44,770.42 2058.58,770.06 C2056.44,769.64 2053.26,767.06 2049.92,764.91 C2046.71,762.83 2041.39,757.65 2039.50,755.66 C2037.13,753.16 2034.04,749.21 2032.50,745.50 C2031.70,743.53 2029.38,736.48 2028.15,732.19 C2027.20,728.84 2027.40,722.78 2026.98,721.49 C2026.32,719.45 2027.65,715.18 2027.62,713.53 C2027.61,713.13 2027.48,711.11 2027.40,709.36 C2027.34,707.97 2028.32,706.22 2028.50,705.50 C2028.67,704.86 2028.56,702.99 2029.27,700.99 C2030.37,697.87 2033.05,690.35 2033.50,689.50 C2034.10,688.38 2039.97,680.55 2040.22,680.22 C2042.37,677.35 2047.36,673.32 2050.50,671.50 C2052.18,670.54 2059.63,666.79 2060.21,666.48 C2062.43,665.33 2075.11,662.27 2077.19,662.42 C2078.45,662.52 2079.80,661.76 2080.50,661.50 Z"/>
      <path d="M1462.50,662.50 C1463.95,661.78 1478.15,663.25 1484.18,664.81 C1486.76,665.49 1490.41,667.41 1492.44,668.31 C1494.32,669.17 1498.83,674.07 1500.70,674.60 C1501.89,674.89 1503.07,674.09 1503.34,672.85 C1503.54,671.86 1503.39,668.99 1503.34,668.23 C1503.27,666.91 1503.80,666.03 1504.94,665.78 C1507.94,665.20 1539.34,665.44 1539.50,665.50 C1540.59,665.99 1540.50,669.61 1540.46,674.65 C1540.46,708.50 1540.26,764.31 1540.50,765.50 C1541.08,768.59 1540.83,770.61 1539.50,771.50 C1538.36,772.21 1511.71,771.51 1511.50,771.50 C1508.42,771.36 1504.34,771.92 1503.50,770.50 C1503.16,769.88 1503.32,766.51 1503.51,764.87 C1503.74,762.92 1502.91,761.52 1501.50,761.50 C1500.27,761.53 1499.01,763.96 1498.50,764.50 C1498.00,765.05 1494.75,767.05 1493.88,767.83 C1490.51,770.77 1485.66,772.70 1482.50,773.50 C1480.55,773.99 1470.66,775.83 1469.84,775.84 C1467.25,775.83 1447.73,771.46 1444.50,769.50 C1443.71,769.01 1435.74,763.48 1434.50,762.50 C1432.49,760.89 1427.75,755.05 1425.57,751.54 C1418.06,739.33 1416.58,729.17 1416.50,728.50 C1416.44,728.04 1416.59,725.29 1416.50,724.50 C1416.38,723.33 1415.43,718.95 1415.50,718.50 C1415.62,717.77 1416.66,716.03 1416.57,714.18 C1416.51,712.55 1416.36,708.99 1416.50,708.50 C1416.72,707.79 1417.31,707.22 1417.50,706.50 C1417.68,705.86 1417.54,703.77 1418.06,702.27 C1419.15,699.14 1422.72,691.68 1423.94,689.33 C1425.73,685.93 1429.09,681.14 1431.50,678.50 C1434.25,675.54 1438.95,671.69 1442.28,669.85 C1445.36,668.17 1451.97,665.21 1454.81,664.42 C1458.11,663.54 1460.88,663.74 1461.50,663.50 C1461.94,663.33 1462.08,662.72 1462.50,662.50 Z"/>
      <path d="M1633.50,663.50 C1635.28,662.85 1654.78,664.84 1658.94,666.74 C1660.68,667.56 1664.43,670.15 1667.50,672.50 C1669.57,674.10 1672.67,677.98 1675.11,681.84 C1677.43,685.58 1679.60,691.59 1680.04,695.58 C1680.45,699.54 1680.78,769.79 1680.50,770.50 C1679.99,771.63 1674.59,771.40 1670.64,771.41 C1663.83,771.45 1651.48,771.57 1646.55,771.02 C1644.92,770.81 1643.85,769.98 1643.93,768.90 C1644.01,768.08 1644.57,766.10 1644.57,764.01 C1644.63,756.93 1644.69,740.67 1644.67,731.49 C1644.56,719.63 1643.43,710.71 1643.54,708.57 C1643.63,706.39 1641.60,700.29 1640.05,698.27 C1638.24,696.00 1635.00,693.53 1632.12,692.64 C1630.44,692.15 1627.55,691.49 1626.50,691.50 C1624.94,691.52 1617.56,692.85 1616.72,693.29 C1614.30,694.58 1610.19,697.65 1608.98,699.27 C1608.19,700.35 1607.29,701.87 1606.40,703.68 C1605.03,706.55 1604.41,712.36 1604.27,717.26 C1604.24,719.15 1604.27,763.51 1604.84,767.29 C1605.18,769.69 1604.81,770.83 1603.50,771.50 C1602.19,772.09 1569.88,771.66 1569.50,771.50 C1568.39,770.99 1568.51,767.41 1568.54,762.36 C1568.54,728.50 1568.74,672.74 1568.50,671.50 C1567.94,668.44 1568.21,666.41 1569.50,665.50 C1570.57,664.80 1603.16,665.36 1603.50,665.50 C1604.30,665.90 1604.58,667.15 1604.50,669.50 C1604.36,672.95 1604.94,677.29 1605.50,677.50 C1606.61,677.83 1613.42,671.78 1617.15,669.02 C1619.79,667.10 1623.96,666.33 1625.41,665.49 C1626.86,664.66 1628.31,664.30 1629.73,664.43 C1631.23,664.58 1632.80,663.76 1633.50,663.50 Z"/>
      <path d="M1889.50,665.50 C1890.57,664.80 1923.32,665.41 1923.50,665.50 C1924.60,666.15 1924.50,669.60 1924.47,674.65 C1924.46,708.50 1924.26,764.27 1924.50,765.50 C1925.06,768.56 1924.80,770.59 1923.50,771.50 C1922.43,772.20 1889.68,771.59 1889.50,771.50 C1888.41,770.85 1888.51,767.40 1888.54,762.36 C1888.54,728.50 1888.74,672.74 1888.50,671.50 C1887.94,668.44 1888.21,666.41 1889.50,665.50 Z"/>

      <path d="M2077.50,186.50 C2079.51,185.97 2091.74,189.10 2093.50,190.50 C2094.14,191.03 2101.30,198.36 2102.50,200.50 C2103.22,201.82 2104.35,208.09 2105.17,210.84 C2105.63,212.46 2104.37,216.76 2103.95,219.55 C2103.33,223.66 2102.21,225.83 2099.66,228.46 C2096.28,231.89 2091.20,236.05 2087.76,237.20 C2086.69,237.55 2079.29,238.86 2077.50,238.50 C2077.05,238.41 2068.67,236.33 2067.34,235.70 C2066.09,235.08 2058.96,229.17 2057.62,227.42 C2056.42,225.79 2055.77,222.63 2054.50,219.50 C2053.70,217.49 2053.43,211.80 2053.99,208.00 C2054.52,204.75 2056.65,200.50 2059.44,196.92 C2062.42,193.19 2066.69,189.75 2070.13,188.29 C2071.72,187.64 2073.77,187.28 2075.09,187.38 C2076.49,187.51 2077.05,186.63 2077.50,186.50 Z" fill="none"/>
      <path d="M831.50,187.50 C831.89,187.38 839.86,187.44 842.94,187.95 C846.00,188.49 848.78,189.89 851.92,192.38 C855.93,195.63 859.24,199.62 860.57,202.88 C861.64,205.63 862.58,210.82 862.50,213.50 C862.35,217.11 860.79,223.61 858.68,226.58 C856.83,229.11 852.94,233.07 850.50,234.50 C846.00,237.06 842.43,238.81 839.75,238.89 C838.92,238.90 830.18,238.01 829.45,237.79 C826.94,237.02 822.02,233.35 818.53,230.33 C815.59,227.75 813.60,225.19 812.98,222.33 C812.71,220.96 811.72,219.21 811.50,218.50 C811.41,218.20 811.54,208.54 811.71,207.43 C812.11,204.96 815.54,198.77 817.50,196.50 C819.53,194.19 825.78,189.04 828.04,188.63 C828.52,188.55 830.79,187.73 831.50,187.50 Z" fill="none"/>
      <path d="M1785.50,187.50 C1785.62,187.47 1794.88,187.31 1795.58,187.28 C1797.13,187.23 1803.33,189.99 1805.50,191.50 C1808.03,193.30 1812.67,198.43 1814.23,201.32 C1816.03,204.73 1816.71,207.33 1816.50,210.50 C1816.44,211.29 1816.68,218.93 1815.74,221.81 C1814.97,224.12 1810.95,229.91 1810.50,230.50 C1810.24,230.84 1802.76,236.38 1802.50,236.50 C1801.76,236.84 1795.54,238.66 1794.60,238.71 C1791.04,238.87 1785.97,238.11 1782.38,237.02 C1778.62,235.83 1773.54,232.59 1771.40,229.56 C1769.39,226.63 1765.92,218.47 1765.50,216.50 C1765.20,215.04 1765.40,208.85 1765.50,208.50 C1765.71,207.79 1767.22,202.56 1769.29,199.49 C1771.35,196.45 1775.57,192.33 1777.47,190.82 C1779.35,189.35 1784.78,187.71 1785.50,187.50 Z" fill="none"/>
      <path d="M1396.50,439.50 C1397.08,439.41 1403.86,440.32 1404.50,440.50 C1407.88,441.50 1408.80,441.58 1413.31,444.92 C1416.91,447.71 1420.66,451.98 1421.71,454.92 C1422.63,457.65 1423.48,463.12 1423.50,465.50 C1423.50,467.98 1422.65,473.46 1421.55,476.16 C1420.24,479.29 1416.55,483.93 1413.33,486.50 C1410.49,488.73 1404.54,491.27 1402.50,491.50 C1401.28,491.63 1392.87,491.59 1392.50,491.50 C1391.13,491.16 1384.53,487.64 1381.65,485.50 C1378.23,482.90 1374.67,477.89 1373.34,473.78 C1372.27,470.32 1372.17,465.34 1372.50,462.50 C1372.92,459.14 1373.91,454.79 1375.50,452.50 C1377.65,449.50 1382.41,444.22 1385.31,442.59 C1386.30,442.05 1389.74,440.64 1390.50,440.50 C1391.76,440.28 1394.45,440.52 1394.50,440.50 C1395.21,440.26 1395.77,439.62 1396.50,439.50 Z" fill="none"/>
      <path d="M2081.50,684.50 C2081.72,684.41 2091.65,684.54 2092.56,684.68 C2095.04,685.07 2101.76,689.01 2103.50,690.50 C2105.12,691.93 2107.73,695.00 2108.50,696.50 C2108.69,696.88 2110.50,702.01 2110.50,702.50 C2110.45,703.95 2109.25,704.63 2107.17,704.55 C2106.84,704.53 2065.50,704.50 2065.50,704.50 C2064.55,703.80 2064.50,702.26 2065.37,699.71 C2065.82,698.44 2067.42,694.00 2068.50,692.50 C2070.23,690.16 2076.83,686.17 2079.16,685.72 C2079.61,685.65 2081.07,684.69 2081.50,684.50 Z" fill="none"/>
      <path d="M1936.50,440.50 C1936.62,440.47 1945.88,440.31 1946.58,440.28 C1948.13,440.23 1954.33,442.99 1956.50,444.50 C1959.03,446.30 1963.67,451.43 1965.23,454.32 C1967.03,457.73 1967.71,460.33 1967.50,463.50 C1967.44,464.29 1967.68,471.93 1966.74,474.81 C1965.97,477.12 1961.95,482.91 1961.50,483.50 C1961.24,483.84 1953.76,489.38 1953.50,489.50 C1952.76,489.84 1946.54,491.66 1945.60,491.71 C1942.04,491.87 1936.97,491.11 1933.38,490.02 C1929.62,488.83 1924.54,485.59 1922.40,482.56 C1920.39,479.63 1916.92,471.47 1916.50,469.50 C1916.20,468.04 1916.40,461.85 1916.50,461.50 C1916.71,460.79 1918.22,455.56 1920.29,452.49 C1922.35,449.45 1926.57,445.33 1928.47,443.82 C1930.35,442.35 1935.78,440.71 1936.50,440.50 Z" fill="none"/>
      <path d="M1473.50,693.50 C1473.62,693.47 1482.88,693.31 1483.58,693.28 C1485.13,693.23 1491.33,695.99 1493.50,697.50 C1496.03,699.30 1500.67,704.43 1502.23,707.32 C1504.03,710.73 1504.71,713.33 1504.50,716.50 C1504.44,717.29 1504.68,724.93 1503.74,727.81 C1502.97,730.12 1498.95,735.91 1498.50,736.50 C1498.24,736.84 1490.76,742.38 1490.50,742.50 C1489.76,742.84 1483.54,744.66 1482.60,744.71 C1479.04,744.87 1473.97,744.11 1470.38,743.02 C1466.62,741.83 1461.54,738.59 1459.40,735.56 C1457.39,732.63 1453.92,724.47 1453.50,722.50 C1453.20,721.04 1453.40,714.85 1453.50,714.50 C1453.71,713.79 1455.22,708.56 1457.29,705.49 C1459.35,702.45 1463.57,698.33 1465.47,696.82 C1467.35,695.35 1472.78,693.71 1473.50,693.50 Z" fill="none"/>
    </g>
  </symbol>
</svg>